<?xml version="1.0" encoding="iso-8859-1"?>
<!-- Generator: Adobe Illustrator 18.0.0, SVG Export Plug-In . SVG Version: 6.00 Build 0)  -->
<!DOCTYPE svg PUBLIC "-//W3C//DTD SVG 1.1//EN" "http://www.w3.org/Graphics/SVG/1.1/DTD/svg11.dtd">
<svg version="1.1" id="Capa_1" xmlns="http://www.w3.org/2000/svg" xmlns:xlink="http://www.w3.org/1999/xlink" x="0px" y="0px"
	 viewBox="0 0 59.945 59.945" style="enable-background:new 0 0 59.945 59.945;" xml:space="preserve">
<path fill="#d50000" d="M58.598,12.729C56.757,8.025,53.242,4.418,48.7,2.571c-1.964-0.798-3.953-1.203-5.91-1.203
	c-6.509,0-11.063,4.358-12.84,6.401c-1.768-2.05-6.302-6.426-12.809-6.426c-1.951,0-3.934,0.404-5.895,1.201
	C6.704,4.391,3.188,7.998,1.347,12.701c-1.964,5.019-1.773,10.707,0.525,15.608c3.263,6.957,10.681,17.788,27.49,29.872l0.583,0.42
	l0.583-0.42c16.892-12.144,24.302-22.934,27.543-29.847C60.371,23.435,60.562,17.747,58.598,12.729z"/>
</svg>
