<?xml version="1.0" standalone="no"?>
<!DOCTYPE svg PUBLIC "-//W3C//DTD SVG 20010904//EN"
 "http://www.w3.org/TR/2001/REC-SVG-20010904/DTD/svg10.dtd">
<svg version="1.0" xmlns="http://www.w3.org/2000/svg"
 width="700.000000pt" height="700.000000pt" viewBox="0 0 700.000000 700.000000"
 preserveAspectRatio="xMidYMid meet">
<metadata>
Created by potrace 1.11, written by Peter Selinger 2001-2013
</metadata>
<g transform="translate(0.000000,700.000000) scale(0.100000,-0.100000)"
fill="#000000" stroke="none">
<path d="M3144 5900 c-40 -20 -46 -31 -299 -533 -241 -479 -258 -515 -251
-550 11 -58 52 -98 106 -104 74 -7 97 15 174 166 l67 131 254 0 254 0 67 -131
c77 -151 100 -173 174 -166 54 6 95 46 106 104 6 34 -11 73 -250 551 -257 513
-258 514 -299 533 -52 23 -53 23 -103 -1z m120 -517 l66 -133 -135 0 -135 0
67 135 c37 74 68 133 69 132 1 -1 32 -62 68 -134z"/>
<path d="M4253 5910 c-82 -19 -117 -106 -73 -178 40 -65 -15 -62 1120 -62
l1030 0 0 -1755 c0 -1904 -3 -1791 52 -1829 29 -21 107 -21 136 0 55 38 52
-82 52 1906 0 1797 0 1834 -20 1865 -10 17 -29 38 -42 45 -19 10 -235 13
-1123 15 -605 0 -1115 -2 -1132 -7z"/>
<path d="M1004 5881 c-17 -10 -36 -32 -42 -47 -16 -42 -224 -1071 -224 -1109
0 -43 17 -72 55 -95 64 -39 137 -16 167 53 9 23 28 94 40 158 l22 116 248 67
c136 36 249 66 252 66 3 0 44 -45 93 -101 49 -55 102 -107 118 -116 76 -39
167 16 167 100 -1 23 -6 52 -13 63 -12 22 -659 756 -728 827 -31 32 -43 37
-80 37 -25 0 -57 -8 -75 -19z m251 -484 c48 -54 85 -101 82 -104 -8 -8 -250
-73 -255 -68 -3 3 44 256 54 284 6 17 -7 28 119 -112z"/>
<path d="M4402 4610 c-116 -31 -206 -84 -298 -175 -134 -133 -192 -262 -201
-451 -8 -168 28 -313 108 -432 l22 -33 -39 7 c-65 13 -195 8 -259 -10 -233
-68 -443 -265 -511 -480 -42 -133 -34 -299 22 -431 55 -132 187 -273 321 -343
213 -111 430 -110 619 2 33 19 61 33 63 31 2 -2 -36 -123 -83 -269 -47 -145
-86 -273 -86 -283 0 -43 3 -43 497 -43 l473 0 15 24 c16 23 12 35 -89 293 -57
147 -103 270 -101 272 3 2 37 -12 77 -32 152 -75 319 -96 468 -61 191 44 375
187 469 364 63 117 87 291 60 422 -27 129 -122 279 -236 373 -174 144 -354
202 -537 171 l-48 -8 31 46 c75 108 106 238 98 400 -10 196 -71 341 -197 466
-84 84 -173 140 -270 172 -96 31 -289 35 -388 8z"/>
<path d="M2660 4207 c-13 -7 -35 -28 -47 -46 l-23 -34 0 -1831 c0 -1723 1
-1833 18 -1866 9 -20 32 -43 52 -53 33 -17 98 -17 1265 -11 1321 7 1263 5
1299 58 20 32 21 105 0 134 -38 55 23 52 -1234 52 l-1160 0 0 1760 c0 1555 -2
1764 -15 1790 -27 53 -100 75 -155 47z"/>
<path d="M971 4115 c-45 -38 -54 -78 -36 -150 25 -97 140 -519 405 -1495 137
-503 287 -1059 335 -1235 61 -226 92 -326 107 -342 66 -71 182 -38 203 57 7
31 -1 60 -444 1690 -142 525 -287 1059 -321 1187 -35 128 -71 246 -81 263 -34
55 -117 68 -168 25z"/>
<path d="M5453 1569 c-55 -16 -90 -71 -83 -133 1 -10 114 -244 251 -520 270
-542 272 -546 350 -546 74 0 82 13 351 558 147 297 248 514 248 531 0 72 -81
130 -154 110 -45 -12 -74 -51 -141 -187 l-49 -102 -258 0 -257 0 -66 130 c-66
129 -82 147 -140 163 -11 3 -34 1 -52 -4z m647 -534 c0 -10 -131 -267 -134
-264 -2 2 -34 64 -70 137 l-66 132 135 0 c74 0 135 -2 135 -5z"/>
</g>
</svg>
